<?xml version="1.0" standalone="no"?>
<!DOCTYPE svg PUBLIC "-//W3C//DTD SVG 20010904//EN" "http://www.w3.org/TR/2001/REC-SVG-20010904/DTD/svg10.dtd">
<svg version="1.0" xmlns="http://www.w3.org/2000/svg" width="188.000000pt" height="159.000000pt" viewBox="0 0 188.000000 159.000000" preserveAspectRatio="xMidYMid meet">

  <g transform="translate(0.000000,159.000000) scale(0.100000,-0.100000)" fill="#000000" stroke="none">
    <path d="M1439 1551 c-16 -16 -29 -39 -29 -50 0 -18 6 -21 39 -21 33 0 40 4
45 25 4 16 13 25 26 25 47 0 9 -80 -74 -159 -25 -24 -36 -44 -36 -63 l0 -28
105 0 105 0 0 30 c0 30 0 30 -57 30 l-58 1 35 31 c57 51 80 89 80 128 0 54
-32 80 -99 80 -45 0 -57 -4 -82 -29z" />
    <path d="M1660 1495 l0 -85 36 0 c23 0 41 6 49 17 22 30 45 9 45 -42 0 -51
-23 -72 -45 -42 -16 23 -85 24 -85 2 0 -9 11 -27 25 -40 20 -21 34 -25 80 -25
46 0 60 4 80 25 21 20 25 34 25 83 0 44 -5 63 -17 74 -29 24 -49 27 -78 12
-36 -19 -35 -19 -35 21 l0 35 60 0 c57 0 60 1 60 25 l0 25 -100 0 -100 0 0
-85z" />
    <path d="M516 1255 c-76 -27 -112 -81 -125 -189 l-6 -51 -47 -3 -48 -3 0 125
0 126 -80 0 -80 0 0 -125 0 -125 -65 0 -65 0 0 -80 0 -79 63 -3 62 -3 3 -357
2 -358 80 0 80 0 0 355 0 355 50 0 49 0 3 -287 c3 -284 3 -289 28 -338 33 -65
90 -96 182 -98 121 -3 177 24 221 107 22 40 22 47 22 471 0 420 0 431 -21 470
-28 51 -53 73 -101 91 -49 17 -157 17 -207 -1z m138 -156 l26 -20 0 -385 c0
-371 -1 -385 -20 -404 -27 -27 -56 -25 -86 5 l-25 25 3 381 3 381 24 19 c30
24 42 24 75 -2z" />
    <path d="M1065 1256 c-55 -20 -101 -76 -114 -137 -14 -65 -14 -788 0 -849 24
-107 93 -154 224 -153 90 0 127 14 168 63 39 46 47 90 47 268 l0 162 -80 0
-80 0 0 -150 c0 -137 -2 -152 -20 -170 -25 -25 -55 -25 -80 0 -19 19 -20 33
-20 410 l0 390 24 15 c29 19 72 11 86 -15 6 -10 10 -71 10 -134 l0 -116 81 0
80 0 -3 153 c-4 178 -14 210 -81 247 -53 30 -180 38 -242 16z" />
  </g>
</svg>